<?xml version="1.0" encoding="UTF-8" standalone="no"?>
<svg
   xmlns:dc="http://purl.org/dc/elements/1.1/"
   xmlns:cc="http://creativecommons.org/ns#"
   xmlns:rdf="http://www.w3.org/1999/02/22-rdf-syntax-ns#"
   xmlns:svg="http://www.w3.org/2000/svg"
   xmlns="http://www.w3.org/2000/svg"
   xmlns:sodipodi="http://sodipodi.sourceforge.net/DTD/sodipodi-0.dtd"
   xmlns:inkscape="http://www.inkscape.org/namespaces/inkscape"
   version="1.1"
   x="0px"
   y="0px"
   viewBox="0 0 100 125"
   style="enable-background:new 0 0 100 100;"
   xml:space="preserve"
   id="svg26"
   sodipodi:docname="auto_dmrid.svg"
   inkscape:version="1.0.1 (3bc2e813f5, 2020-09-07)"><metadata
     id="metadata32"><rdf:RDF><cc:Work
         rdf:about=""><dc:format>image/svg+xml</dc:format><dc:type
           rdf:resource="http://purl.org/dc/dcmitype/StillImage" /><dc:title></dc:title></cc:Work></rdf:RDF></metadata><defs
     id="defs30" /><sodipodi:namedview
     pagecolor="#ffffff"
     bordercolor="#666666"
     borderopacity="1"
     objecttolerance="10"
     gridtolerance="10"
     guidetolerance="10"
     inkscape:pageopacity="0"
     inkscape:pageshadow="2"
     inkscape:window-width="1920"
     inkscape:window-height="1080"
     id="namedview28"
     showgrid="false"
     inkscape:zoom="7.064"
     inkscape:cx="50"
     inkscape:cy="60.579838"
     inkscape:window-x="0"
     inkscape:window-y="0"
     inkscape:window-maximized="0"
     inkscape:current-layer="svg26"
     inkscape:document-rotation="0" /><g
     id="g10"><path
       d="m 5273.1,2400.1 v -2 c 0,-2.8 -5,-4 -9.7,-4 -4.7,0 -9.7,1.3 -9.7,4 v 2 c 0,1.8 0.7,3.6 2,4.9 l 5,4.9 c 0.3,0.3 0.4,0.6 0.4,1 v 6.4 c 0,0.4 0.2,0.7 0.6,0.8 l 2.9,0.9 c 0.5,0.1 1,-0.2 1,-0.8 v -7.2 c 0,-0.4 0.2,-0.7 0.4,-1 l 5.1,-5 c 1.3,-1.3 2,-3.1 2,-4.9 z m -9.7,-0.1 c -4.8,0 -7.4,-1.3 -7.5,-1.8 v 0 c 0.1,-0.5 2.7,-1.8 7.5,-1.8 4.8,0 7.3,1.3 7.5,1.8 -0.2,0.5 -2.7,1.8 -7.5,1.8 z"
       id="path2" /><path
       d="m 5268.4,2410.3 c -0.6,0 -1,0.4 -1,1 0,0.6 0.4,1 1,1 h 4.3 c 0.6,0 1,-0.4 1,-1 0,-0.6 -0.4,-1 -1,-1 z"
       id="path4" /><path
       d="m 5272.7,2413.7 h -4.3 c -0.6,0 -1,0.4 -1,1 0,0.6 0.4,1 1,1 h 4.3 c 0.6,0 1,-0.4 1,-1 0,-0.6 -0.4,-1 -1,-1 z"
       id="path6" /><path
       d="m 5272.7,2417 h -4.3 c -0.6,0 -1,0.4 -1,1 0,0.6 0.4,1 1,1 h 4.3 c 0.6,0 1,-0.4 1,-1 0,-0.5 -0.4,-1 -1,-1 z"
       id="path8" /></g><path
     d="m 78.1,51.9 c 0.9,4.5 4.8,7.9 9.6,7.9 5.4,0 9.8,-4.4 9.8,-9.8 0,-5.4 -4.4,-9.8 -9.8,-9.8 -4.7,0 -8.7,3.4 -9.6,7.9 H 66.8 V 21.5 c 0,-1.6 1.3,-2.9 2.9,-2.9 h 8.5 c 0.9,4.5 4.8,7.9 9.6,7.9 5.4,0 9.8,-4.4 9.8,-9.8 C 97.6,11.3 93.1,7 87.7,7 83,7 79,10.4 78.1,14.9 h -8.5 c -3.7,0 -6.7,3 -6.7,6.7 V 48.2 H 51.3 v -1.4 c 0,-1.9 -1.5,-3.4 -3.4,-3.4 H 45.8 C 45.6,42.8 45.3,42.2 45,41.6 l 1.5,-1.5 c 1.3,-1.3 1.3,-3.5 0,-4.8 l -4.7,-4.7 c -1.3,-1.3 -3.6,-1.3 -4.8,0 l -1.5,1.5 C 34.9,31.8 34.3,31.6 33.7,31.3 V 29 c 0,-1.9 -1.5,-3.4 -3.4,-3.4 h -6.6 c -1.9,0 -3.4,1.5 -3.4,3.4 v 2.1 c -0.6,0.2 -1.2,0.5 -1.8,0.8 L 17,30.4 c -0.6,-0.6 -1.5,-1 -2.4,-1 0,0 0,0 0,0 -0.9,0 -1.8,0.4 -2.4,1 l -4.7,4.7 c -0.6,0.6 -1,1.5 -1,2.4 0,0.9 0.4,1.8 1,2.4 L 9,41.4 C 8.5,42 8.2,42.7 8,43.3 H 5.9 c -1.9,0 -3.4,1.5 -3.4,3.4 v 6.6 c 0,1.9 1.5,3.4 3.4,3.4 H 8 c 0.2,0.6 0.5,1.2 0.8,1.8 L 7.3,60 c -0.6,0.6 -1,1.5 -1,2.4 0,0.9 0.4,1.8 1,2.4 l 4.7,4.7 c 1.3,1.3 3.5,1.3 4.8,0 L 18.3,68 c 0.6,0.3 1.2,0.5 1.8,0.8 V 71 c 0,1.9 1.5,3.4 3.4,3.4 h 6.6 c 1.9,0 3.4,-1.5 3.4,-3.4 v -2.1 c 0.6,-0.2 1.2,-0.5 1.8,-0.8 l 1.5,1.5 c 1.3,1.3 3.5,1.3 4.8,0 l 4.7,-4.7 c 0.6,-0.6 1,-1.5 1,-2.4 0,-0.9 -0.4,-1.8 -1,-2.4 L 45,58.6 c 0.3,-0.6 0.5,-1.2 0.8,-1.8 h 2.1 c 1.9,0 3.4,-1.5 3.4,-3.4 V 52 H 63 v 26.6 c 0,3.7 3,6.7 6.7,6.7 h 8.5 c 0.8,4.4 4.8,7.7 9.5,7.7 5.4,0 9.8,-4.4 9.8,-9.8 0,-5.4 -4.4,-9.8 -9.8,-9.8 -4.7,0 -8.7,3.4 -9.6,7.9 H 69.6 C 68,81.3 66.7,80 66.7,78.4 V 51.9 Z M 87.7,44 c 3.3,0 6,2.7 6,6 0,3.3 -2.7,6 -6,6 -3.3,0 -6,-2.7 -6,-6 0,-3.3 2.7,-6 6,-6 z m 0,-33.2 c 3.3,0 6,2.7 6,6 0,3.3 -2.7,6 -6,6 -3.3,0 -6,-2.7 -6,-6 0,-3.3 2.7,-6 6,-6 z M 47.5,52.9 h -3.1 c -0.9,0 -1.6,0.6 -1.8,1.4 -0.4,1.3 -0.9,2.5 -1.5,3.7 -0.4,0.7 -0.3,1.7 0.3,2.3 l 2.2,2.2 -4.2,4.2 -2.2,-2.2 c -0.6,-0.6 -1.5,-0.7 -2.3,-0.3 -1.1,0.7 -2.4,1.2 -3.7,1.5 -0.8,0.2 -1.4,1 -1.4,1.8 v 3.1 H 24 v -3.1 c 0,-0.9 -0.6,-1.6 -1.4,-1.8 -1.3,-0.4 -2.5,-0.9 -3.7,-1.5 -0.7,-0.4 -1.7,-0.3 -2.3,0.3 l -2.2,2.2 -4.2,-4.2 2.2,-2.2 C 13,59.7 13.1,58.8 12.7,58 12,56.9 11.5,55.6 11.2,54.3 11,53.5 10.2,52.9 9.4,52.9 H 6.3 V 47 h 3.1 c 0.9,0 1.6,-0.6 1.8,-1.4 0.4,-1.3 0.9,-2.5 1.5,-3.7 0.4,-0.7 0.3,-1.7 -0.3,-2.3 l -2.2,-2.2 4.2,-4.2 2.2,2.2 c 0.6,0.6 1.5,0.7 2.3,0.3 1.1,-0.7 2.4,-1.2 3.7,-1.5 0.8,-0.2 1.4,-1 1.4,-1.8 v -3.1 h 5.9 v 3.1 c 0,0.9 0.6,1.6 1.4,1.8 1.3,0.4 2.5,0.9 3.7,1.5 0.7,0.4 1.7,0.3 2.3,-0.3 l 2.2,-2.2 4.2,4.2 -2.2,2.2 c -0.6,0.6 -0.7,1.5 -0.3,2.3 0.7,1.1 1.2,2.4 1.5,3.7 0.2,0.8 1,1.4 1.8,1.4 h 3.1 v 5.9 z m 40.2,24.4 c 3.3,0 6,2.7 6,6 0,3.3 -2.7,6 -6,6 -3.3,0 -6,-2.7 -6,-6 0,-3.3 2.7,-6 6,-6 z"
     id="path12" /><g
     transform="matrix(0.26412477,0,0,0.25962255,13.070415,-210.13172)"
     id="g4"><path
       style="color:#000000;text-indent:0;text-transform:none;direction:ltr;baseline-shift:baseline;enable-background:accumulate"
       d="m 51.038706,958.36215 c -15.1615,0 -28.5462,7.8427 -36.1859,19.6883 -0.8619,1.319 -0.4344,3.3025 0.8951,4.1527 1.3296,0.8503 3.3179,0.4117 4.1629,-0.9182 6.5746,-10.1942 18.0398,-16.9509 31.1279,-16.9509 9.2153,0 17.6,3.3225 24.072,8.8642 1.1603,1.1649 3.3227,1.0894 4.3982,-0.1536 1.0756,-1.2428 0.8318,-3.3847 -0.4956,-4.3562 -7.5151,-6.4352 -17.2994,-10.3263 -27.9746,-10.3263 z m 0,11.3526 c -1.5841,-0.023 -3.0419,1.4076 -3.0419,2.9859 0,1.5782 1.4578,3.0091 3.0419,2.9858 14.1448,0 25.5394,11.3821 25.5394,25.47355 -0.01,0.1036 -0.01,0.2075 0,0.311 -0.026,6.8773 -0.9113,13.5298 -2.529,19.9059 -0.3767,1.5202 0.6643,3.2451 2.1887,3.6267 1.5243,0.3817 3.2602,-0.648 3.6497,-2.1649 1.7451,-6.878 2.6674,-14.0544 2.6852,-21.4609 0,-0.072 0,-0.1452 0,-0.2178 0,-0.095 8e-4,-0.1847 0,-0.28 1e-4,-0.01 1e-4,-0.021 0,-0.031 -0.1719,-17.17345 -14.2558,-31.13415 -31.534,-31.13415 z m -10.7403,2.084 c -0.1462,-3e-4 -0.2923,0.01 -0.437,0.031 -0.2684,0.037 -0.5319,0.1105 -0.7806,0.2177 -11.4051,4.6509 -19.4662,15.8005 -19.6072,28.77025 -0.01,0.114 -0.01,0.2282 0,0.3422 -0.01,0.1036 -0.01,0.2075 0,0.311 -0.084,7.1061 -3.0643,13.4713 -7.8365,18.0398 -1.2419,1.0535 -1.3469,3.176 -0.215,4.3459 1.1318,1.1699 3.2648,1.1437 4.3674,-0.054 5.9208,-5.6679 9.6192,-13.6254 9.6787,-22.4251 0,-0.073 0,-0.1452 0,-0.2178 0,-0.093 0,-0.1867 0,-0.28 0.116,-10.54965 6.6682,-19.53495 15.8918,-23.29625 1.3071,-0.4841 2.1548,-1.9693 1.904,-3.3359 -0.2507,-1.3666 -1.5711,-2.457 -2.9656,-2.4491 z m 44.1787,4.541 c -1.0863,-0.01 -2.1528,0.626 -2.6639,1.5809 -0.5113,0.9549 -0.4446,2.1897 0.1663,3.0846 3.7728,5.7401 5.9883,12.5914 6.0256,19.96805 4e-4,0.064 0,0.1232 0,0.1867 -0.01,0.1036 -0.01,0.2075 0,0.311 -0.021,6.2654 -0.6772,12.3746 -1.8732,18.2886 -0.3175,1.5416 0.8061,3.2316 2.3549,3.5418 1.5487,0.3102 3.2407,-0.8158 3.546,-2.3599 1.2777,-6.3189 1.9508,-12.848 1.9669,-19.5327 1e-4,-0.01 0,-0.021 0,-0.031 0,-0.072 0,-0.1452 0,-0.2178 0,-0.095 7e-4,-0.185 0,-0.28 1e-4,-0.01 1e-4,-0.021 0,-0.031 -0.062,-8.50955 -2.6264,-16.46505 -6.9937,-23.10935 -0.5346,-0.8494 -1.5226,-1.3962 -2.5289,-1.3998 z m -33.4384,4.7587 c -10.9738,0 -19.9688,8.8565 -20.138,19.75045 -0.01,0.1036 -0.01,0.2076 0,0.3111 -0.01,0.1036 -0.01,0.2075 0,0.311 -0.028,3.4809 -0.536,6.8346 -1.4674,10.0152 -0.5366,1.5242 0.4288,3.3987 1.9845,3.8537 1.5558,0.4548 3.3849,-0.6028 3.7603,-2.1741 1.0966,-3.7446 1.6966,-7.7035 1.7172,-11.788 0,-0.072 0,-0.1452 0,-0.2178 0,-0.093 0,-0.1867 0,-0.28 0.1514,-7.67645 6.4002,-13.80965 14.1434,-13.80965 5.0063,0 9.3482,2.5858 11.8642,6.4693 0.8556,1.3249 2.8466,1.7518 4.1736,0.895 1.3271,-0.8568 1.749,-2.8416 0.8844,-4.1608 -3.5821,-5.5287 -9.8468,-9.1754 -16.9222,-9.1754 z m -38.3714,5.5987 c -1.27,0.032 -2.4661,0.9586 -2.8099005,2.1769 -1.1495,3.8274 -1.7591,7.8817 -1.7797,12.06815 -10e-5,0.01 -10e-5,0.021 0,0.031 -2e-4,0.063 0,0.124 0,0.1867 -0.01,0.1036 -0.01,0.2075 0,0.311 -0.049,2.2815 -0.6471,4.3983 -1.6548,6.2828 -0.8804,1.3842 -0.3289,3.4638 1.123,4.2341 1.4518,0.7703 3.4920005,0.066 4.1535005,-1.4347 1.4691,-2.7477 2.3366,-5.8653 2.3728,-9.1754 0,-0.073 0,-0.1452 0,-0.2178 0,-0.093 0,-0.1867 0,-0.28 0.026,-3.58055 0.5505,-7.03405 1.53,-10.29515 0.5749,-1.8062 -1.0334,-3.9367 -2.9349,-3.8877 z m 38.3714,5.7851 c -4.7728,0 -8.7109,3.923 -8.7109,8.67775 -0.021,1.5765 1.4147,3.0255 2.9974,3.0255 1.5827,0 3.0181,-1.449 2.9973,-3.0255 0,-1.52735 1.1832,-2.70605 2.7162,-2.70605 1.5331,0 2.7163,1.1787 2.7163,2.70605 -0.01,0.1036 -0.01,0.2075 0,0.311 -0.037,7.2614 -1.3909,14.2029 -3.809,20.6212 -0.5412,1.4643 0.2999,3.2869 1.7677,3.8312 1.4679,0.5443 3.3005,-0.2869 3.8522,-1.7472 2.676,-7.1027 4.1572,-14.7813 4.1837,-22.7984 0,-0.072 0,-0.1452 0,-0.2178 0,-0.095 0,-0.1853 0,-0.28 2e-4,-0.021 2e-4,-0.042 0,-0.063 -0.1866,-4.59645 -4.0552,-8.33555 -8.7109,-8.33555 z m 17.0783,5.6296 c -1.58,0.016 -2.999,1.4744 -2.9661,3.04815 0,15.1078 -4.734,29.0563 -12.8008,40.5583 -0.9058,1.2862 -0.5577,3.288 0.743,4.1767 1.2171,0.8315 3.2935,0.5373 4.1899,-0.7554 8.744,-12.4675 13.8625,-27.6287 13.8625,-43.9796 0.033,-1.59445 -1.4278,-3.06485 -3.0285,-3.04815 z m -23.6036,8.18005 c -1.3706,0.071 -2.6117,1.1976 -2.81,2.5507 -1.6912,10.4987 -6.7722,19.858 -14.1121,26.935 -1.2409,1.0538 -1.3452,3.1752 -0.2137,4.3448 1.1314,1.1695 3.2633,1.1439 4.3662,-0.052 8.2433,-7.9483 13.9905,-18.4601 15.8917,-30.2634 0.3228,-1.7707 -1.3184,-3.6183 -3.1221,-3.5146 z m -16.485,12.3168 c -0.9708,0.074 -1.8889,0.6514 -2.3729,1.4929 -1.9433,3.2203 -4.3742,6.1021 -7.181,8.5845 -1.2007,1.0272 -1.342,3.0582 -0.2952,4.2406 1.0469,1.1825 3.0872,1.2966 4.2603,0.2383 3.2592,-2.8823 6.0776,-6.2416 8.3363,-9.9841 0.5878,-0.928 0.6026,-2.1859 0.037,-3.1273 -0.5658,-0.9415 -1.6858,-1.5227 -2.7844,-1.4449 z m 46.208,8.74 c -1.161,0.08 -2.2374,0.8968 -2.6226,1.9907 -1.0313,2.8191 -2.2057,5.5763 -3.528,8.2423 -0.7727,1.408 -0.1419,3.3986 1.3023,4.1095 1.444,0.7109 3.4144,9e-4 4.0678,-1.4658 1.4187,-2.86 2.6711,-5.808 3.7779,-8.8333 0.3559,-0.9303 0.204,-2.0366 -0.3897,-2.8375 -0.5937,-0.801 -1.6104,-1.2711 -2.6077,-1.2059 z m -26.5697,2.8615 c -0.9707,0.074 -1.8888,0.6514 -2.3729,1.4929 -1.8979,3.1592 -4.091,6.1194 -6.5252,8.8644 -1.0629,1.1685 -0.9486,3.2017 0.2386,4.2447 1.1872,1.043 3.2263,0.9019 4.2573,-0.2946 2.6768,-3.0185 5.0925,-6.2906 7.1811,-9.7664 0.5745,-0.9316 0.5767,-2.1841 0.01,-3.1176 -0.5712,-0.9336 -1.6898,-1.5054 -2.7842,-1.4234 z"
       fill="#000000"
       fill-opacity="1"
       stroke="none"
       marker="none"
       visibility="visible"
       display="inline"
       overflow="visible"
       id="path2-3" /></g></svg>
