<?xml version="1.0" encoding="UTF-8" standalone="no"?>
<svg
   xmlns:dc="http://purl.org/dc/elements/1.1/"
   xmlns:cc="http://creativecommons.org/ns#"
   xmlns:rdf="http://www.w3.org/1999/02/22-rdf-syntax-ns#"
   xmlns:svg="http://www.w3.org/2000/svg"
   xmlns="http://www.w3.org/2000/svg"
   xmlns:sodipodi="http://sodipodi.sourceforge.net/DTD/sodipodi-0.dtd"
   xmlns:inkscape="http://www.inkscape.org/namespaces/inkscape"
   version="1.1"
   x="0px"
   y="0px"
   viewBox="0 0 260 325"
   enable-background="new 0 0 260 260"
   xml:space="preserve"
   id="svg63"
   sodipodi:docname="directory.svg"
   inkscape:version="1.0.1 (3bc2e813f5, 2020-09-07)"><metadata
     id="metadata69"><rdf:RDF><cc:Work
         rdf:about=""><dc:format>image/svg+xml</dc:format><dc:type
           rdf:resource="http://purl.org/dc/dcmitype/StillImage" /></cc:Work></rdf:RDF></metadata><defs
     id="defs67" /><sodipodi:namedview
     pagecolor="#ffffff"
     bordercolor="#666666"
     borderopacity="1"
     objecttolerance="10"
     gridtolerance="10"
     guidetolerance="10"
     inkscape:pageopacity="0"
     inkscape:pageshadow="2"
     inkscape:window-width="1920"
     inkscape:window-height="1080"
     id="namedview65"
     showgrid="false"
     inkscape:zoom="2.7169231"
     inkscape:cx="130"
     inkscape:cy="162.5"
     inkscape:window-x="0"
     inkscape:window-y="0"
     inkscape:window-maximized="0"
     inkscape:current-layer="svg63" /><g
     id="g29"><path
       d="M115.868,123.548H30.32c-6.904,0-12.5-5.596-12.5-12.5V25.5c0-6.904,5.596-12.5,12.5-12.5h85.548   c6.903,0,12.5,5.596,12.5,12.5v85.548C128.368,117.952,122.771,123.548,115.868,123.548z M42.82,98.548h60.548V38H42.82V98.548z"
       id="path27" /></g><g
     id="g33"><path
       d="M115.868,250.5H30.32c-6.904,0-12.5-5.597-12.5-12.5v-85.548c0-6.903,5.596-12.5,12.5-12.5h85.548   c6.903,0,12.5,5.597,12.5,12.5V238C128.368,244.903,122.771,250.5,115.868,250.5z M42.82,225.5h60.548v-60.548H42.82V225.5z"
       id="path31" /></g><g
     id="g37"><path
       d="M233,42.011h-72.277c-6.903,0-12.5-5.597-12.5-12.5s5.597-12.5,12.5-12.5H233c6.903,0,12.5,5.597,12.5,12.5   S239.903,42.011,233,42.011z"
       id="path35" /></g><g
     id="g41"><path
       d="M208.783,80.774h-48.061c-6.903,0-12.5-5.597-12.5-12.5s5.597-12.5,12.5-12.5h48.061c6.903,0,12.5,5.597,12.5,12.5   S215.687,80.774,208.783,80.774z"
       id="path39" /></g><g
     id="g45"><path
       d="M214.372,119.807h-53.649c-6.903,0-12.5-5.597-12.5-12.5s5.597-12.5,12.5-12.5h53.649c6.903,0,12.5,5.597,12.5,12.5   S221.275,119.807,214.372,119.807z"
       id="path43" /></g><g
     id="g49"><path
       d="M233,168.828h-72.277c-6.903,0-12.5-5.597-12.5-12.5s5.597-12.5,12.5-12.5H233c6.903,0,12.5,5.597,12.5,12.5   S239.903,168.828,233,168.828z"
       id="path47" /></g><g
     id="g53"><path
       d="M208.783,207.592h-48.061c-6.903,0-12.5-5.597-12.5-12.5s5.597-12.5,12.5-12.5h48.061c6.903,0,12.5,5.597,12.5,12.5   S215.687,207.592,208.783,207.592z"
       id="path51" /></g><g
     id="g57"><path
       d="M214.372,246.624h-53.649c-6.903,0-12.5-5.597-12.5-12.5s5.597-12.5,12.5-12.5h53.649c6.903,0,12.5,5.597,12.5,12.5   S221.275,246.624,214.372,246.624z"
       id="path55" /></g></svg>
