<?xml version="1.0" encoding="UTF-8" standalone="no"?>
<svg
   xmlns:dc="http://purl.org/dc/elements/1.1/"
   xmlns:cc="http://creativecommons.org/ns#"
   xmlns:rdf="http://www.w3.org/1999/02/22-rdf-syntax-ns#"
   xmlns:svg="http://www.w3.org/2000/svg"
   xmlns="http://www.w3.org/2000/svg"
   xmlns:sodipodi="http://sodipodi.sourceforge.net/DTD/sodipodi-0.dtd"
   xmlns:inkscape="http://www.inkscape.org/namespaces/inkscape"
   version="1.1"
   x="0px"
   y="0px"
   viewBox="0 0 100 125"
   style="enable-background:new 0 0 100 100;"
   xml:space="preserve"
   id="svg85"
   sodipodi:docname="encryption2.svg"
   inkscape:version="1.0.1 (3bc2e813f5, 2020-09-07)"><metadata
     id="metadata91"><rdf:RDF><cc:Work
         rdf:about=""><dc:format>image/svg+xml</dc:format><dc:type
           rdf:resource="http://purl.org/dc/dcmitype/StillImage" /></cc:Work></rdf:RDF></metadata><defs
     id="defs89" /><sodipodi:namedview
     pagecolor="#ffffff"
     bordercolor="#666666"
     borderopacity="1"
     objecttolerance="10"
     gridtolerance="10"
     guidetolerance="10"
     inkscape:pageopacity="0"
     inkscape:pageshadow="2"
     inkscape:window-width="1920"
     inkscape:window-height="1080"
     id="namedview87"
     showgrid="false"
     inkscape:zoom="7.064"
     inkscape:cx="50"
     inkscape:cy="105.91439"
     inkscape:window-x="0"
     inkscape:window-y="0"
     inkscape:window-maximized="0"
     inkscape:current-layer="svg85" /><g
     id="g79"><path
       d="M84.952,12.786c-0.482-0.38-1.115-0.517-1.709-0.37c-2.766,0.674-5.597,1.027-8.4,1.049H74.53   c-8.347,0-16.409-2.786-23.317-8.056c-0.717-0.546-1.709-0.546-2.426,0c-6.908,5.27-14.971,8.056-23.317,8.056h-0.297   c-2.819-0.022-5.65-0.375-8.416-1.049c-0.594-0.147-1.227-0.01-1.709,0.37c-0.482,0.379-0.765,0.959-0.765,1.573v30.783   c0,23.87,14.479,44.345,35.208,49.792C49.658,94.978,49.829,95,50,95s0.342-0.022,0.509-0.066   c20.729-5.447,35.208-25.922,35.208-49.792V14.359C85.717,13.745,85.435,13.165,84.952,12.786z M81.717,45.142   c0,21.855-13.016,40.599-31.717,45.786c-18.701-5.188-31.717-23.931-31.717-45.786V16.825c2.271,0.407,4.571,0.622,6.874,0.64   h0.313c8.744,0,17.194-2.754,24.53-7.98c7.336,5.226,15.786,7.98,24.53,7.98h0.328c2.291-0.018,4.589-0.233,6.858-0.64V45.142z"
       id="path71" /><path
       d="M57.84,39.799v-4.326c0-4.323-3.517-7.84-7.84-7.84s-7.84,3.517-7.84,7.84v4.326c-2.234,0.361-3.951,2.288-3.951,4.623   v9.081c0,2.591,2.108,4.699,4.699,4.699h14.184c2.591,0,4.699-2.108,4.699-4.699v-9.081C61.791,42.088,60.074,40.161,57.84,39.799z    M46.16,35.473c0-2.117,1.723-3.84,3.84-3.84s3.84,1.723,3.84,3.84v4.25h-7.68V35.473z M57.791,53.503   c0,0.386-0.313,0.699-0.699,0.699H42.908c-0.386,0-0.699-0.313-0.699-0.699v-9.081c0-0.385,0.313-0.699,0.699-0.699h1.252h11.68   h1.252c0.386,0,0.699,0.313,0.699,0.699V53.503z"
       id="path73" /><path
       d="M50,45.098c-1.299,0-2.352,1.053-2.352,2.352c0,0.45,0.133,0.866,0.352,1.223v2.564c0,1.104,0.896,2,2,2s2-0.896,2-2   v-2.564c0.219-0.357,0.352-0.773,0.352-1.223C52.352,46.151,51.299,45.098,50,45.098z"
       id="path75" /><path
       d="M50,20.251c-13.05,0-23.667,10.617-23.667,23.667S36.95,67.584,50,67.584s23.667-10.617,23.667-23.667   S63.05,20.251,50,20.251z M50,63.584c-10.845,0-19.667-8.823-19.667-19.667S39.155,24.251,50,24.251s19.667,8.822,19.667,19.667   S60.845,63.584,50,63.584z"
       id="path77" /></g></svg>
