<?xml version="1.0" encoding="UTF-8" standalone="no"?>
<svg
   xmlns:dc="http://purl.org/dc/elements/1.1/"
   xmlns:cc="http://creativecommons.org/ns#"
   xmlns:rdf="http://www.w3.org/1999/02/22-rdf-syntax-ns#"
   xmlns:svg="http://www.w3.org/2000/svg"
   xmlns="http://www.w3.org/2000/svg"
   xmlns:sodipodi="http://sodipodi.sourceforge.net/DTD/sodipodi-0.dtd"
   xmlns:inkscape="http://www.inkscape.org/namespaces/inkscape"
   version="1.1"
   x="0px"
   y="0px"
   viewBox="0 0 100 125"
   enable-background="new 0 0 100 100"
   xml:space="preserve"
   id="svg133"
   sodipodi:docname="expand.svg"
   inkscape:version="1.0.1 (3bc2e813f5, 2020-09-07)"><metadata
     id="metadata139"><rdf:RDF><cc:Work
         rdf:about=""><dc:format>image/svg+xml</dc:format><dc:type
           rdf:resource="http://purl.org/dc/dcmitype/StillImage" /></cc:Work></rdf:RDF></metadata><defs
     id="defs137" /><sodipodi:namedview
     pagecolor="#ffffff"
     bordercolor="#666666"
     borderopacity="1"
     objecttolerance="10"
     gridtolerance="10"
     guidetolerance="10"
     inkscape:pageopacity="0"
     inkscape:pageshadow="2"
     inkscape:window-width="1920"
     inkscape:window-height="1080"
     id="namedview135"
     showgrid="false"
     inkscape:zoom="7.064"
     inkscape:cx="50"
     inkscape:cy="74.666638"
     inkscape:window-x="0"
     inkscape:window-y="0"
     inkscape:window-maximized="0"
     inkscape:current-layer="svg133" /><g
     id="g127"><g
       id="g125"><path
         d="M50,4C24.636,4,4,24.636,4,50s20.636,46,46,46s46-20.636,46-46S75.364,4,50,4z M50,89c-21.505,0-39-17.495-39-39    s17.495-39,39-39s39,17.495,39,39S71.505,89,50,89z"
         id="path121" /><polygon
         points="55,31.107 45,31.107 45,45 31.107,45 31.107,55 45,55 45,68.893 55,68.893 55,55 68.893,55 68.893,45 55,45   "
         id="polygon123" /></g></g></svg>
