<?xml version="1.0" encoding="UTF-8" standalone="no"?>
<svg
   xmlns:sketch="http://www.bohemiancoding.com/sketch/ns"
   xmlns:dc="http://purl.org/dc/elements/1.1/"
   xmlns:cc="http://creativecommons.org/ns#"
   xmlns:rdf="http://www.w3.org/1999/02/22-rdf-syntax-ns#"
   xmlns:svg="http://www.w3.org/2000/svg"
   xmlns="http://www.w3.org/2000/svg"
   xmlns:sodipodi="http://sodipodi.sourceforge.net/DTD/sodipodi-0.dtd"
   xmlns:inkscape="http://www.inkscape.org/namespaces/inkscape"
   viewBox="0 0 55 68.75"
   version="1.1"
   x="0px"
   y="0px"
   id="svg113"
   sodipodi:docname="expand2.svg"
   inkscape:version="1.0.1 (3bc2e813f5, 2020-09-07)">
  <metadata
     id="metadata119">
    <rdf:RDF>
      <cc:Work
         rdf:about="">
        <dc:format>image/svg+xml</dc:format>
        <dc:type
           rdf:resource="http://purl.org/dc/dcmitype/StillImage" />
      </cc:Work>
    </rdf:RDF>
  </metadata>
  <defs
     id="defs117" />
  <sodipodi:namedview
     pagecolor="#ffffff"
     bordercolor="#666666"
     borderopacity="1"
     objecttolerance="10"
     gridtolerance="10"
     guidetolerance="10"
     inkscape:pageopacity="0"
     inkscape:pageshadow="2"
     inkscape:window-width="1920"
     inkscape:window-height="1080"
     id="namedview115"
     showgrid="false"
     inkscape:zoom="12.843636"
     inkscape:cx="27.5"
     inkscape:cy="58.264777"
     inkscape:window-x="0"
     inkscape:window-y="0"
     inkscape:window-maximized="0"
     inkscape:current-layer="svg113" />
  <title
     id="title93">149 - Expand (Solid)</title>
  <desc
     id="desc95">Created with Sketch.</desc>
  <g
     stroke="none"
     stroke-width="1"
     fill="none"
     fill-rule="evenodd"
     sketch:type="MSPage"
     id="g107">
    <g
       sketch:type="MSLayerGroup"
       fill="#000000"
       id="g105">
      <path
         d="M54.961,1.608 C54.949,1.549 54.927,1.494 54.91,1.437 C54.89,1.369 54.874,1.301 54.847,1.235 C54.819,1.168 54.781,1.107 54.746,1.043 C54.718,0.993 54.696,0.94 54.663,0.891 C54.517,0.672 54.329,0.483 54.109,0.337 C54.059,0.303 54.004,0.28 53.952,0.251 C53.89,0.217 53.831,0.18 53.765,0.153 C53.698,0.125 53.629,0.109 53.56,0.089 C53.504,0.073 53.45,0.051 53.392,0.039 C53.263,0.014 53.131,0 53,0 L41,0 C39.896,0 39,0.896 39,2 C39,3.104 39.896,4 41,4 L48.172,4 L33.586,18.586 C32.805,19.367 32.805,20.633 33.586,21.414 C33.976,21.805 34.488,22 35,22 C35.512,22 36.024,21.805 36.414,21.414 L51,6.828 L51,14 C51,15.104 51.896,16 53,16 C54.105,16 55,15.104 55,14 L55,2 C55,1.869 54.986,1.738 54.961,1.608"
         sketch:type="MSShapeGroup"
         id="path97" />
      <path
         d="M18.586,33.586 L4,48.172 L4,41 C4,39.896 3.105,39 2,39 C0.895,39 0,39.896 0,41 L0,53 C0,53.131 0.014,53.262 0.04,53.392 C0.051,53.451 0.073,53.506 0.09,53.563 C0.11,53.631 0.126,53.699 0.153,53.765 C0.181,53.832 0.219,53.893 0.254,53.956 C0.282,54.007 0.304,54.06 0.337,54.109 C0.483,54.328 0.671,54.517 0.891,54.663 C0.94,54.696 0.994,54.719 1.046,54.747 C1.108,54.781 1.169,54.819 1.235,54.847 C1.301,54.874 1.37,54.89 1.438,54.91 C1.495,54.927 1.549,54.949 1.608,54.96 C1.738,54.986 1.869,55 2,55 L14,55 C15.104,55 16,54.104 16,53 C16,51.896 15.104,51 14,51 L6.828,51 L21.414,36.414 C22.195,35.633 22.195,34.367 21.414,33.586 C20.634,32.805 19.366,32.805 18.586,33.586"
         sketch:type="MSShapeGroup"
         id="path99" />
      <path
         d="M2,16 C3.105,16 4,15.104 4,14 L4,6.828 L18.585,21.413 C18.975,21.803 19.487,21.998 19.999,21.998 C20.51,21.998 21.022,21.803 21.413,21.413 C22.194,20.632 22.194,19.365 21.413,18.584 L6.828,4 L14,4 C15.104,4 16,3.104 16,2 C16,0.896 15.104,0 14,0 L2,0 C1.869,0 1.738,0.014 1.608,0.039 C1.55,0.051 1.496,0.073 1.44,0.089 C1.371,0.109 1.302,0.125 1.235,0.153 C1.169,0.18 1.11,0.218 1.048,0.251 C0.995,0.28 0.941,0.303 0.891,0.337 C0.671,0.483 0.483,0.672 0.337,0.891 C0.304,0.94 0.282,0.993 0.254,1.043 C0.219,1.107 0.181,1.168 0.153,1.235 C0.126,1.301 0.11,1.369 0.09,1.437 C0.073,1.494 0.051,1.549 0.04,1.608 C0.014,1.738 0,1.869 0,2 L0,14 C0,15.104 0.895,16 2,16"
         sketch:type="MSShapeGroup"
         id="path101" />
      <path
         d="M53,39 C51.896,39 51,39.896 51,41 L51,48.172 L36.414,33.585 C35.633,32.804 34.366,32.804 33.585,33.585 C32.804,34.366 32.804,35.633 33.585,36.414 L48.172,51 L41,51 C39.896,51 39,51.896 39,53 C39,54.104 39.896,55 41,55 L53,55 C53.131,55 53.262,54.986 53.392,54.96 C53.451,54.949 53.505,54.927 53.562,54.91 C53.63,54.89 53.699,54.874 53.765,54.847 C53.831,54.819 53.892,54.781 53.954,54.747 C54.006,54.719 54.06,54.696 54.109,54.663 C54.329,54.517 54.517,54.328 54.663,54.109 C54.696,54.06 54.718,54.007 54.746,53.956 C54.781,53.893 54.819,53.832 54.847,53.765 C54.874,53.699 54.89,53.631 54.91,53.563 C54.927,53.506 54.949,53.451 54.961,53.392 C54.986,53.262 55,53.131 55,53 L55,41 C55,39.896 54.105,39 53,39"
         sketch:type="MSShapeGroup"
         id="path103" />
    </g>
  </g>
</svg>
