<?xml version="1.0" encoding="UTF-8" standalone="no"?>
<svg
   xmlns:dc="http://purl.org/dc/elements/1.1/"
   xmlns:cc="http://creativecommons.org/ns#"
   xmlns:rdf="http://www.w3.org/1999/02/22-rdf-syntax-ns#"
   xmlns:svg="http://www.w3.org/2000/svg"
   xmlns="http://www.w3.org/2000/svg"
   xmlns:sodipodi="http://sodipodi.sourceforge.net/DTD/sodipodi-0.dtd"
   xmlns:inkscape="http://www.inkscape.org/namespaces/inkscape"
   version="1.1"
   x="0px"
   y="0px"
   viewBox="0 0 98 122.5"
   style="enable-background:new 0 0 98 98;"
   xml:space="preserve"
   id="svg16"
   sodipodi:docname="hierarchy.svg"
   inkscape:version="1.0.1 (3bc2e813f5, 2020-09-07)"><metadata
     id="metadata22"><rdf:RDF><cc:Work
         rdf:about=""><dc:format>image/svg+xml</dc:format><dc:type
           rdf:resource="http://purl.org/dc/dcmitype/StillImage" /></cc:Work></rdf:RDF></metadata><defs
     id="defs20" /><sodipodi:namedview
     pagecolor="#ffffff"
     bordercolor="#666666"
     borderopacity="1"
     objecttolerance="10"
     gridtolerance="10"
     guidetolerance="10"
     inkscape:pageopacity="0"
     inkscape:pageshadow="2"
     inkscape:window-width="1920"
     inkscape:window-height="1080"
     id="namedview18"
     showgrid="false"
     inkscape:zoom="7.2081633"
     inkscape:cx="49"
     inkscape:cy="61.25"
     inkscape:window-x="0"
     inkscape:window-y="0"
     inkscape:window-maximized="0"
     inkscape:current-layer="svg16" /><g
     id="g10"><rect
       x="43.8"
       y="79"
       width="10.4"
       height="8.9"
       id="rect2" /><path
       d="M83.7,56.6V45.4H50V32.6h19V3.4H29v29.2h19v12.8H14.3v11.1h-11V79h24.2V56.6H16.3v-9.1H48v24.8H36.9v22.4   h24.2V72.2H50V47.4h31.7v9.1H70.5V79h24.2V56.6H83.7z M31,5.4H67v25.2H31V5.4z M25.5,77H5.2V58.6h20.2V77z M59.1,92.6H38.9V74.2   h20.2V92.6z M92.8,77H72.5V58.6h20.2V77z"
       id="path4" /><rect
       x="77.4"
       y="63.3"
       width="10.4"
       height="8.9"
       id="rect6" /><rect
       x="10.2"
       y="63.3"
       width="10.4"
       height="8.9"
       id="rect8" /></g></svg>
