<?xml version="1.0" encoding="UTF-8" standalone="no"?>
<svg
   xmlns:dc="http://purl.org/dc/elements/1.1/"
   xmlns:cc="http://creativecommons.org/ns#"
   xmlns:rdf="http://www.w3.org/1999/02/22-rdf-syntax-ns#"
   xmlns:svg="http://www.w3.org/2000/svg"
   xmlns="http://www.w3.org/2000/svg"
   xmlns:sodipodi="http://sodipodi.sourceforge.net/DTD/sodipodi-0.dtd"
   xmlns:inkscape="http://www.inkscape.org/namespaces/inkscape"
   version="1.1"
   x="0px"
   y="0px"
   viewBox="0 0 67 83.75"
   enable-background="new 0 0 67 67"
   xml:space="preserve"
   id="svg12"
   sodipodi:docname="key.svg"
   inkscape:version="1.0.1 (3bc2e813f5, 2020-09-07)"><metadata
     id="metadata18"><rdf:RDF><cc:Work
         rdf:about=""><dc:format>image/svg+xml</dc:format><dc:type
           rdf:resource="http://purl.org/dc/dcmitype/StillImage" /></cc:Work></rdf:RDF></metadata><defs
     id="defs16" /><sodipodi:namedview
     pagecolor="#ffffff"
     bordercolor="#666666"
     borderopacity="1"
     objecttolerance="10"
     gridtolerance="10"
     guidetolerance="10"
     inkscape:pageopacity="0"
     inkscape:pageshadow="2"
     inkscape:window-width="1920"
     inkscape:window-height="1080"
     id="namedview14"
     showgrid="false"
     inkscape:zoom="10.543284"
     inkscape:cx="34.229698"
     inkscape:cy="53.97941"
     inkscape:window-x="0"
     inkscape:window-y="0"
     inkscape:window-maximized="0"
     inkscape:current-layer="svg12" /><g
     id="g6"><path
       d="M33.5,32.2c8.7,0,15.9-7.1,15.9-15.9c0-8.8-7.1-15.9-15.9-15.9c-8.8,0-15.9,7.1-15.9,15.9   C17.6,25.1,24.7,32.2,33.5,32.2z M33.5,6.6c2,0,3.7,1.6,3.7,3.7S35.5,14,33.5,14c-2,0-3.7-1.7-3.7-3.7S31.5,6.6,33.5,6.6z"
       id="path2" /><path
       d="M58.3,55.6c-2,0-3.6,1.4-4,3.2h-5.1l-3.9-3.9c-0.2-0.2-0.4-0.3-0.7-0.3h-6v-5.3H48   c0.7,1.3,2.1,2.2,3.6,2.2c2.3,0,4.2-1.9,4.2-4.2s-1.9-4.1-4.2-4.1c-2.3,0-4.1,1.9-4.1,4.1h-9v-4.7h6c0.3,0,0.5-0.1,0.7-0.3l3.9-3.9   h5.1c0.4,1.8,2.1,3.2,4,3.2c2.3,0,4.1-1.9,4.1-4.1c0-2.3-1.9-4.1-4.1-4.1c-1.9,0-3.6,1.3-4,3.1h-5.5c-0.3,0-0.5,0.1-0.7,0.3   l-3.9,3.9h-5.6v-7c-1.6,0.5-3.3,0.7-5,0.7c-1.7,0-3.4-0.3-5-0.7v5.7h-5.6l-3.9-3.9c-0.2-0.2-0.4-0.3-0.7-0.3h-5.5   c-0.5-1.8-2.1-3.1-4-3.1c-2.3,0-4.1,1.9-4.1,4.2s1.9,4.1,4.1,4.1c2,0,3.6-1.4,4-3.2h5.1l3.9,3.9c0.2,0.2,0.4,0.3,0.7,0.3h6v6.3   h-9.1c-0.4-1.8-2.1-3.1-4-3.1c-2.3,0-4.1,1.9-4.1,4.1c0,2.3,1.9,4.1,4.1,4.1c1.9,0,3.6-1.3,4-3.1h9.1v6.3h-6   c-0.3,0-0.5,0.1-0.7,0.3l-3.9,3.9h-5.1c-0.4-1.8-2.1-3.2-4-3.2c-2.3,0-4.1,1.9-4.1,4.2c0,2.3,1.9,4.1,4.1,4.1c1.9,0,3.6-1.3,4-3.1   h5.5c0.3,0,0.5-0.1,0.7-0.3l3.9-3.9h5.6v3.6c0,0.3,0.1,0.5,0.3,0.7l4,4c0.2,0.2,0.5,0.3,0.7,0.3c0.3,0,0.5-0.1,0.7-0.3l4-4   c0.2-0.2,0.3-0.4,0.3-0.7v-4.9h5.6l3.9,3.9c0.2,0.2,0.4,0.3,0.7,0.3h5.5c0.4,1.8,2.1,3.1,4,3.1c2.3,0,4.1-1.9,4.1-4.2   C62.4,57.5,60.6,55.6,58.3,55.6z"
       id="path4" /></g></svg>
