<?xml version="1.0" encoding="UTF-8" standalone="no"?>
<svg
   xmlns:dc="http://purl.org/dc/elements/1.1/"
   xmlns:cc="http://creativecommons.org/ns#"
   xmlns:rdf="http://www.w3.org/1999/02/22-rdf-syntax-ns#"
   xmlns:svg="http://www.w3.org/2000/svg"
   xmlns="http://www.w3.org/2000/svg"
   xmlns:sodipodi="http://sodipodi.sourceforge.net/DTD/sodipodi-0.dtd"
   xmlns:inkscape="http://www.inkscape.org/namespaces/inkscape"
   version="1.1"
   x="0px"
   y="0px"
   viewBox="0 0 100 125"
   enable-background="new 0 0 100 100"
   xml:space="preserve"
   id="svg18"
   sodipodi:docname="usb.svg"
   inkscape:version="1.0.1 (3bc2e813f5, 2020-09-07)"><metadata
     id="metadata24"><rdf:RDF><cc:Work
         rdf:about=""><dc:format>image/svg+xml</dc:format><dc:type
           rdf:resource="http://purl.org/dc/dcmitype/StillImage" /></cc:Work></rdf:RDF></metadata><defs
     id="defs22" /><sodipodi:namedview
     pagecolor="#ffffff"
     bordercolor="#666666"
     borderopacity="1"
     objecttolerance="10"
     gridtolerance="10"
     guidetolerance="10"
     inkscape:pageopacity="0"
     inkscape:pageshadow="2"
     inkscape:window-width="1920"
     inkscape:window-height="1080"
     id="namedview20"
     showgrid="false"
     inkscape:zoom="7.064"
     inkscape:cx="50"
     inkscape:cy="62.5"
     inkscape:window-x="0"
     inkscape:window-y="0"
     inkscape:window-maximized="0"
     inkscape:current-layer="svg18" /><g
     id="g12"><g
       id="g10"><path
         d="M47.872,16.516h-3.145c-0.153,0-0.278,0.122-0.278,0.273v3.09c0,0.151,0.124,0.273,0.278,0.273h3.145    c0.153,0,0.278-0.122,0.278-0.273v-3.09C48.15,16.638,48.026,16.516,47.872,16.516z"
         id="path2" /><path
         d="M55.273,16.516h-3.145c-0.153,0-0.278,0.122-0.278,0.273v3.09c0,0.151,0.124,0.273,0.278,0.273h3.145    c0.153,0,0.278-0.122,0.278-0.273v-3.09C55.55,16.638,55.426,16.516,55.273,16.516z"
         id="path4" /><path
         d="M53.032,41.903h0.96c-0.121,0.934-0.469,1.802-1.025,2.514c-0.629,0.805-1.459,1.323-2.374,1.5v-7.963h1.418l-1.968-3.35    l-1.968,3.35h1.306v11.152c-0.918-0.183-1.742-0.725-2.355-1.556c-0.581-0.79-0.911-1.761-0.968-2.793    c0.536-0.23,0.911-0.754,0.911-1.365c0-0.823-0.679-1.49-1.516-1.49s-1.516,0.667-1.516,1.49c0,0.61,0.374,1.132,0.908,1.363    c0.059,1.285,0.468,2.501,1.199,3.494c0.847,1.15,2.024,1.869,3.338,2.062v3.01c-0.874,0.258-1.516,1.045-1.516,1.989    c0,1.152,0.95,2.085,2.122,2.085c1.172,0,2.122-0.934,2.122-2.085c0-0.943-0.642-1.731-1.516-1.989v-6.196    c1.297-0.184,2.47-0.874,3.336-1.982c0.718-0.919,1.157-2.041,1.284-3.24h0.851v-2.979h-3.032V41.903z"
         id="path6" /><path
         d="M62.213,27.587h-2.401c0.016-0.082,0.026-0.167,0.026-0.254V10.667c0-0.736-0.608-1.333-1.357-1.333H41.519    c-0.749,0-1.357,0.597-1.357,1.333v16.667c0,0.087,0.01,0.172,0.026,0.254h-2.401c-1.124,0-2.036,0.895-2.036,2v27.634    c0,4.708,3.884,8.525,8.676,8.525c-0.009,0.058-0.019,0.116-0.019,0.177v2.376c0,0.693,0.607,1.257,1.354,1.257h0.284v0.521    c0,0.693,0.607,1.257,1.354,1.257h0.26c-0.022,0.108-0.034,0.219-0.034,0.333V89c0,0.92,0.759,1.667,1.696,1.667h1.357    c0.937,0,1.696-0.746,1.696-1.667V71.667c0-0.114-0.012-0.226-0.034-0.333h0.26c0.747,0,1.354-0.564,1.354-1.257v-0.521h0.284    c0.747,0,1.354-0.564,1.354-1.257v-2.376c0-0.061-0.01-0.119-0.019-0.177c4.792,0,8.676-3.817,8.676-8.525V29.587    C64.249,28.483,63.337,27.587,62.213,27.587z M50.339,10.667h8.142l0.001,16.667h-8.143V10.667z M41.519,10.667h8.142v16.667    h-8.142V10.667z M51.018,89c0,0.183-0.153,0.333-0.339,0.333h-1.357c-0.187,0-0.339-0.15-0.339-0.333V71.667    c0-0.183,0.153-0.333,0.339-0.333h1.357c0.187,0,0.339,0.15,0.339,0.333V89z M54.235,68.222h-1.638V70l-5.193-0.006v-1.772    l-1.638-0.005V66h8.469V68.222z M62.892,57.151c0,4.011-3.309,7.262-7.391,7.262H44.499c-4.082,0-7.391-3.251-7.391-7.262V29.587    c0-0.368,0.304-0.667,0.679-0.667h24.426c0.375,0,0.679,0.298,0.679,0.667V57.151z"
         id="path8" /></g></g></svg>
