<?xml version="1.0" encoding="UTF-8" standalone="no"?>
<svg
   xmlns:dc="http://purl.org/dc/elements/1.1/"
   xmlns:cc="http://creativecommons.org/ns#"
   xmlns:rdf="http://www.w3.org/1999/02/22-rdf-syntax-ns#"
   xmlns:svg="http://www.w3.org/2000/svg"
   xmlns="http://www.w3.org/2000/svg"
   xmlns:sodipodi="http://sodipodi.sourceforge.net/DTD/sodipodi-0.dtd"
   xmlns:inkscape="http://www.inkscape.org/namespaces/inkscape"
   version="1.1"
   x="0px"
   y="0px"
   viewBox="0 0 24 30"
   enable-background="new 0 0 24 24"
   xml:space="preserve"
   id="svg182"
   sodipodi:docname="usb2.svg"
   inkscape:version="1.0.1 (3bc2e813f5, 2020-09-07)"><metadata
     id="metadata188"><rdf:RDF><cc:Work
         rdf:about=""><dc:format>image/svg+xml</dc:format><dc:type
           rdf:resource="http://purl.org/dc/dcmitype/StillImage" /></cc:Work></rdf:RDF></metadata><defs
     id="defs186" /><sodipodi:namedview
     pagecolor="#ffffff"
     bordercolor="#666666"
     borderopacity="1"
     objecttolerance="10"
     gridtolerance="10"
     guidetolerance="10"
     inkscape:pageopacity="0"
     inkscape:pageshadow="2"
     inkscape:window-width="1920"
     inkscape:window-height="1080"
     id="namedview184"
     showgrid="false"
     inkscape:zoom="29.433333"
     inkscape:cx="18.281864"
     inkscape:cy="36.315293"
     inkscape:window-x="0"
     inkscape:window-y="0"
     inkscape:window-maximized="0"
     inkscape:current-layer="svg182" /><path
     d="M17.436,7.014h-0.974v-6.05c0-0.407-0.365-0.739-0.814-0.739H8.352c-0.448,0-0.813,0.332-0.813,0.739v6.05H6.564  c-0.221,0-0.4,0.179-0.4,0.4v7.22c0,1.578,1.284,2.862,2.863,2.862h1.218v4.524c0,0.968,0.787,1.755,1.754,1.755  c0.968,0,1.755-0.787,1.755-1.755v-4.524h1.218c1.578,0,2.863-1.284,2.863-2.862v-7.22C17.836,7.193,17.656,7.014,17.436,7.014z   M11.454,5.217c0,0.221-0.179,0.4-0.4,0.4H9.21c-0.221,0-0.4-0.179-0.4-0.4V3.373c0-0.221,0.179-0.4,0.4-0.4h1.844  c0.221,0,0.4,0.179,0.4,0.4V5.217z M15.349,5.217c0,0.221-0.18,0.4-0.4,0.4h-1.846c-0.221,0-0.4-0.179-0.4-0.4V3.373  c0-0.221,0.18-0.4,0.4-0.4h1.846c0.221,0,0.4,0.179,0.4,0.4V5.217z"
     id="path176" /></svg>
