<?xml version="1.0" encoding="UTF-8" standalone="no"?>
<svg
   xmlns:dc="http://purl.org/dc/elements/1.1/"
   xmlns:cc="http://creativecommons.org/ns#"
   xmlns:rdf="http://www.w3.org/1999/02/22-rdf-syntax-ns#"
   xmlns:svg="http://www.w3.org/2000/svg"
   xmlns="http://www.w3.org/2000/svg"
   xmlns:sodipodi="http://sodipodi.sourceforge.net/DTD/sodipodi-0.dtd"
   xmlns:inkscape="http://www.inkscape.org/namespaces/inkscape"
   version="1.1"
   x="0px"
   y="0px"
   viewBox="0 0 100 125"
   style="enable-background:new 0 0 100 100;"
   xml:space="preserve"
   id="svg196"
   sodipodi:docname="usb3.svg"
   inkscape:version="1.0.1 (3bc2e813f5, 2020-09-07)"><metadata
     id="metadata202"><rdf:RDF><cc:Work
         rdf:about=""><dc:format>image/svg+xml</dc:format><dc:type
           rdf:resource="http://purl.org/dc/dcmitype/StillImage" /></cc:Work></rdf:RDF></metadata><defs
     id="defs200" /><sodipodi:namedview
     pagecolor="#ffffff"
     bordercolor="#666666"
     borderopacity="1"
     objecttolerance="10"
     gridtolerance="10"
     guidetolerance="10"
     inkscape:pageopacity="0"
     inkscape:pageshadow="2"
     inkscape:window-width="1920"
     inkscape:window-height="1080"
     id="namedview198"
     showgrid="false"
     inkscape:zoom="7.064"
     inkscape:cx="50"
     inkscape:cy="62.5"
     inkscape:window-x="0"
     inkscape:window-y="0"
     inkscape:window-maximized="0"
     inkscape:current-layer="svg196" /><path
     d="M84.8,28H69.3v15.5h5v6.4l-21,2V24.2h8.8L50,4.8L37.9,24.2h9.4v34.3L25.7,48.1v-4.2c3.2-1.3,5.5-4.5,5.5-8.2  c0-4.9-3.9-8.8-8.8-8.8s-8.8,3.9-8.8,8.8c0,3.9,2.6,7.2,6.1,8.4v7.8l27.6,13.2v9.9c-4.4,1.2-7.6,5.2-7.6,9.9  c0,5.7,4.6,10.3,10.3,10.3S60.3,90.7,60.3,85c0-4.5-2.9-8.4-7-9.8V58l27-2.6V43.5h4.5V28z"
     id="path190" /></svg>
